<svg width="1488" height="289" viewBox="0 0 1488 289" fill="none" xmlns="http://www.w3.org/2000/svg">
<path fill-rule="evenodd" clip-rule="evenodd" d="M218.714 21.8504C187.984 3.02915 151.303 -3.55698 115.945 3.39798C80.5867 10.3529 49.133 30.3411 27.8207 59.3991C8.95012 85.128 -0.749361 116.304 0.0451915 147.971C0.194381 153.917 4.99348 158.653 10.8766 158.788C11.5006 158.819 12.1357 158.8 12.777 158.728L53.2109 154.144L53.2259 154.282L53.2439 154.444C55.7706 177.126 66.7284 198.03 83.9445 213.011C101.161 227.992 123.378 235.957 146.191 235.325C169.004 234.694 190.747 225.513 207.108 209.603C213.144 203.734 222.794 203.869 228.664 209.904C234.533 215.94 234.398 225.591 228.362 231.46C218.445 241.103 207.048 248.895 194.708 254.607C189.146 257.182 186.724 263.779 189.299 269.342C191.874 274.904 198.471 277.326 204.033 274.751C218.628 267.994 232.108 258.779 243.837 247.373C258.661 232.958 258.993 209.254 244.577 194.43C230.162 179.605 206.458 179.274 191.633 193.689C179.263 205.718 162.825 212.66 145.577 213.137C128.329 213.614 111.532 207.592 98.5156 196.266C85.4994 184.939 77.2148 169.135 75.3045 151.987C73.3942 134.839 77.9977 117.599 88.2023 103.685C98.4069 89.772 113.467 80.2014 130.397 76.8713C147.327 73.5412 164.89 76.6947 179.604 85.7066C184.831 88.908 191.664 87.2659 194.865 82.0388C198.067 76.8118 196.425 69.9791 191.198 66.7777C171.736 54.858 148.506 50.687 126.113 55.0916C103.72 59.4962 83.8006 72.1549 70.3034 90.5575C61.3318 102.79 55.6334 116.966 53.5627 131.759L22.5379 135.276C24.2293 112.751 32.1844 90.9813 45.7196 72.5268C63.7393 47.9582 90.3335 31.0581 120.229 25.1777C150.125 19.2972 181.138 24.8658 207.121 40.7793C209.716 42.3688 212.242 44.05 214.695 45.8178C214.252 47.6445 214.016 49.5528 214.016 51.516C214.016 64.7965 224.782 75.5624 238.063 75.5624C239.889 75.5624 241.667 75.3588 243.377 74.9732C250.977 85.8923 256.797 98.0771 260.504 111.092C262.81 119.189 258.116 127.622 250.019 129.928C241.923 132.235 233.489 127.541 231.183 119.444C229.504 113.549 223.364 110.131 217.469 111.81C211.574 113.49 208.156 119.63 209.835 125.525C215.5 145.412 236.213 156.941 256.1 151.276C275.987 145.611 287.516 124.898 281.852 105.011C277.268 88.919 269.954 73.8997 260.358 60.5422C261.487 57.7552 262.109 54.7082 262.109 51.516C262.109 38.2356 251.343 27.4697 238.063 27.4697C235.01 27.4697 232.09 28.0386 229.403 29.0761C225.963 26.5183 222.397 24.1063 218.714 21.8504ZM55.8708 215.373C55.8708 219.1 55.023 222.629 53.5097 225.777C56.7597 229.377 60.2376 232.795 63.9313 236.009C86.9159 256.01 116.577 266.644 147.034 265.801C153.161 265.631 158.266 270.461 158.435 276.588C158.605 282.715 153.775 287.82 147.648 287.99C111.626 288.986 76.5447 276.41 49.3602 252.754C44.4688 248.498 39.8972 243.939 35.6656 239.115C34.4148 239.315 33.1318 239.42 31.8245 239.42C18.544 239.42 7.7781 228.654 7.7781 215.373C7.7781 202.093 18.544 191.327 31.8245 191.327C45.1049 191.327 55.8708 202.093 55.8708 215.373ZM145.476 177.278C163.38 177.278 177.894 162.764 177.894 144.86C177.894 126.956 163.38 112.442 145.476 112.442C127.572 112.442 113.058 126.956 113.058 144.86C113.058 162.764 127.572 177.278 145.476 177.278Z" fill="#0BDDA3"/>
<path d="M1450.24 228.653H1425.6V148.799C1425.6 120.87 1449.45 112.817 1461.37 112.282H1488V136.76H1461.37C1453.74 136.76 1450.77 144.786 1450.24 148.799V228.653Z" fill="#0BDDA3"/>
<path d="M448.46 231.535C437.094 231.535 426.449 229.454 416.524 225.292C406.599 220.969 397.874 215.046 390.35 207.523C382.987 199.839 377.144 190.954 372.821 180.869C368.659 170.624 366.578 159.658 366.578 147.972C366.578 136.446 368.659 125.641 372.821 115.555C377.144 105.47 382.987 96.6657 390.35 89.1418C397.874 81.4579 406.599 75.5349 416.524 71.3727C426.449 67.0505 437.094 64.8894 448.46 64.8894C457.585 64.8894 466.309 66.4102 474.634 69.4517C483.118 72.3332 490.722 76.6554 497.445 82.4184C504.169 88.0213 509.531 94.7447 513.534 102.589L493.603 114.115C488.801 105.95 482.478 99.6272 474.634 95.1449C466.95 90.5025 457.905 88.1813 447.5 88.1813C439.656 88.1813 432.372 89.7021 425.648 92.7437C418.925 95.7852 413.002 100.027 407.879 105.47C402.917 110.913 398.995 117.316 396.113 124.68C393.232 131.884 391.791 139.648 391.791 147.972C391.791 156.616 393.152 164.621 395.873 171.984C398.755 179.348 402.677 185.751 407.639 191.194C412.762 196.477 418.685 200.639 425.408 203.681C432.292 206.722 439.656 208.243 447.5 208.243C457.905 208.243 467.03 206.002 474.874 201.519C482.718 196.877 488.961 190.554 493.603 182.55L513.534 194.076C509.531 201.92 504.169 208.643 497.445 214.246C490.722 219.849 483.118 224.171 474.634 227.213C466.309 230.094 457.585 231.535 448.46 231.535Z" fill="#0BDDA3"/>
<path d="M580.721 231.535C568.875 231.535 558.23 228.733 548.785 223.131C539.34 217.528 531.816 210.084 526.213 200.799C520.61 191.354 517.809 180.949 517.809 169.583C517.809 158.217 520.61 147.892 526.213 138.607C531.816 129.322 539.34 121.959 548.785 116.516C558.23 110.913 568.875 108.112 580.721 108.112C592.567 108.112 603.213 110.913 612.657 116.516C622.102 121.959 629.546 129.402 634.989 138.847C640.432 148.132 643.153 158.377 643.153 169.583C643.153 180.949 640.432 191.354 634.989 200.799C629.546 210.084 622.022 217.528 612.417 223.131C602.973 228.733 592.407 231.535 580.721 231.535ZM580.721 208.963C588.085 208.963 594.648 207.202 600.411 203.681C606.334 200.159 610.977 195.436 614.338 189.513C617.7 183.43 619.381 176.867 619.381 169.823C619.381 162.62 617.7 156.056 614.338 150.133C610.977 144.21 606.334 139.488 600.411 135.966C594.648 132.284 588.085 130.443 580.721 130.443C573.357 130.443 566.714 132.284 560.791 135.966C555.028 139.488 550.386 144.21 546.864 150.133C543.342 156.056 541.581 162.62 541.581 169.823C541.581 176.867 543.342 183.43 546.864 189.513C550.386 195.436 555.028 200.159 560.791 203.681C566.714 207.202 573.357 208.963 580.721 208.963Z" fill="#0BDDA3"/>
<path d="M717.246 130.923C709.562 130.923 703.159 132.844 698.036 136.686C692.914 140.528 689.072 145.491 686.51 151.574C683.949 157.657 682.668 164.38 682.668 171.744V228.653H658.896V169.343C658.896 157.817 661.137 147.492 665.62 138.367C670.102 129.082 676.665 121.719 685.31 116.276C693.954 110.833 704.6 108.112 717.246 108.112C730.213 108.112 741.018 110.833 749.663 116.276C758.467 121.719 765.111 129.082 769.593 138.367C774.235 147.492 776.557 157.737 776.557 169.103V228.653H752.784V171.984C752.784 164.621 751.424 157.897 748.702 151.814C746.141 145.571 742.219 140.528 736.936 136.686C731.814 132.844 725.25 130.923 717.246 130.923Z" fill="#0BDDA3"/>
<path d="M855.037 231.535C843.191 231.535 832.546 228.733 823.101 223.131C813.656 217.528 806.132 210.084 800.529 200.799C795.087 191.514 792.365 181.269 792.365 170.063C792.365 158.057 795.007 147.412 800.289 138.127C805.572 128.842 812.856 121.558 822.141 116.276C831.425 110.833 841.991 108.112 853.837 108.112C863.282 108.112 871.926 110.353 879.77 114.835C887.774 119.157 894.178 125 898.98 132.364C903.782 139.728 906.184 147.732 906.184 156.376L893.697 150.133L893.937 56.9653H917.71V170.063C917.71 181.589 914.908 192.075 909.305 201.519C903.862 210.804 896.419 218.168 886.974 223.611C877.529 228.894 866.884 231.535 855.037 231.535ZM855.037 209.203C862.401 209.203 869.045 207.443 874.968 203.921C880.891 200.239 885.533 195.436 888.895 189.513C892.257 183.59 893.937 177.027 893.937 169.823C893.937 162.78 892.257 156.296 888.895 150.373C885.533 144.29 880.891 139.488 874.968 135.966C869.045 132.444 862.401 130.683 855.037 130.683C847.674 130.683 841.03 132.444 835.107 135.966C829.344 139.488 824.702 144.29 821.18 150.373C817.818 156.296 816.137 162.78 816.137 169.823C816.137 177.027 817.818 183.59 821.18 189.513C824.702 195.436 829.344 200.239 835.107 203.921C841.03 207.443 847.674 209.203 855.037 209.203Z" fill="#0BDDA3"/>
<path d="M997.145 208.483C1004.51 208.483 1010.67 206.642 1015.63 202.96C1020.76 199.118 1024.6 194.076 1027.16 187.832C1029.72 181.589 1031 174.866 1031 167.662V110.993H1054.77V170.544C1054.77 181.909 1052.53 192.235 1048.05 201.519C1043.57 210.644 1037.01 217.928 1028.36 223.371C1019.88 228.813 1009.47 231.535 997.145 231.535C984.979 231.535 974.654 228.813 966.169 223.371C957.685 217.768 951.202 210.404 946.719 201.279C942.237 191.995 939.996 181.669 939.996 170.303V110.993H963.768V167.902C963.768 174.946 965.049 181.589 967.61 187.832C970.172 194.076 973.933 199.118 978.896 202.96C983.859 206.642 989.942 208.483 997.145 208.483Z" fill="#0BDDA3"/>
<path d="M1131.21 231.295C1122.88 231.455 1114.96 229.934 1107.44 226.732C1099.91 223.531 1093.35 219.129 1087.74 213.526C1082.14 207.763 1077.74 201.119 1074.54 193.595C1071.34 186.072 1069.74 178.067 1069.74 169.583C1069.74 161.099 1071.34 153.175 1074.54 145.811C1077.74 138.287 1082.14 131.724 1087.74 126.121C1093.35 120.358 1099.91 115.956 1107.44 112.914C1114.96 109.712 1122.88 108.112 1131.21 108.112C1142.09 108.112 1152.18 110.593 1161.46 115.555C1170.75 120.518 1178.11 128.362 1183.55 139.087L1163.86 150.133C1160.34 143.57 1155.7 138.687 1149.94 135.486C1144.33 132.284 1138.09 130.683 1131.21 130.683C1124.32 130.683 1118 132.444 1112.24 135.966C1106.63 139.488 1102.07 144.21 1098.55 150.133C1095.19 156.056 1093.51 162.539 1093.51 169.583C1093.51 176.787 1095.19 183.35 1098.55 189.273C1102.07 195.196 1106.63 199.999 1112.24 203.681C1118 207.202 1124.32 208.963 1131.21 208.963C1138.09 208.963 1144.33 207.362 1149.94 204.161C1155.7 200.799 1160.34 195.917 1163.86 189.513L1183.55 200.319C1178.11 210.884 1170.75 218.728 1161.46 223.851C1152.18 228.813 1142.09 231.295 1131.21 231.295Z" fill="#0BDDA3"/>
<path d="M1250.54 231.775C1240.93 231.775 1232.77 229.854 1226.04 226.012C1219.32 222.17 1214.2 216.887 1210.67 210.164C1207.31 203.28 1205.63 195.356 1205.63 186.392V80.4974H1229.4V185.671C1229.4 193.355 1231.49 199.358 1235.65 203.681C1239.97 208.003 1245.65 210.164 1252.7 210.164C1256.54 210.164 1260.38 209.524 1264.22 208.243C1268.22 206.962 1271.67 205.281 1274.55 203.2V225.052C1271.51 226.973 1267.82 228.573 1263.5 229.854C1259.18 231.135 1254.86 231.775 1250.54 231.775ZM1274.55 131.644H1182.34V110.993H1274.55V131.644Z" fill="#0BDDA3"/>
<path d="M1347.17 231.535C1335.33 231.535 1324.68 228.733 1315.24 223.131C1305.79 217.528 1298.27 210.084 1292.67 200.799C1287.06 191.354 1284.26 180.949 1284.26 169.583C1284.26 158.217 1287.06 147.892 1292.67 138.607C1298.27 129.322 1305.79 121.959 1315.24 116.516C1324.68 110.913 1335.33 108.112 1347.17 108.112C1359.02 108.112 1369.67 110.913 1379.11 116.516C1388.55 121.959 1396 129.402 1401.44 138.847C1406.88 148.132 1409.61 158.377 1409.61 169.583C1409.61 180.949 1406.88 191.354 1401.44 200.799C1396 210.084 1388.47 217.528 1378.87 223.131C1369.43 228.733 1358.86 231.535 1347.17 231.535ZM1347.17 208.963C1354.54 208.963 1361.1 207.202 1366.86 203.681C1372.79 200.159 1377.43 195.436 1380.79 189.513C1384.15 183.43 1385.83 176.867 1385.83 169.823C1385.83 162.62 1384.15 156.056 1380.79 150.133C1377.43 144.21 1372.79 139.488 1366.86 135.966C1361.1 132.284 1354.54 130.443 1347.17 130.443C1339.81 130.443 1333.17 132.284 1327.24 135.966C1321.48 139.488 1316.84 144.21 1313.32 150.133C1309.79 156.056 1308.03 162.62 1308.03 169.823C1308.03 176.867 1309.79 183.43 1313.32 189.513C1316.84 195.436 1321.48 200.159 1327.24 203.681C1333.17 207.202 1339.81 208.963 1347.17 208.963Z" fill="#0BDDA3"/>
</svg>
